<svg width="24" height="24" viewBox="0 0 24 24" fill="none" xmlns="http://www.w3.org/2000/svg">
<path fill-rule="evenodd" clip-rule="evenodd" d="M6.81818 2.00053C5.26175 2.00053 4.33334 2.92895 4.33334 4.48538V19.5157C4.33334 21.0722 5.26175 22.0005 6.81818 22.0005H13.169C12.9662 21.731 12.7953 21.4362 12.6619 21.1217H6.85859C6.33978 21.1217 5.16667 20.5005 5.25253 19.5157V4.48538C5.25253 3.50053 6.33978 2.87932 6.85859 2.87932H12.4141V8.24296C12.4141 9.17644 12.588 9.17428 13.3785 9.16444C13.4667 9.16334 13.5625 9.16215 13.6667 9.16215H18.9899V16.161C19.3438 16.4257 19.6545 16.7451 19.9091 17.1068V9.02118C19.9091 8.89762 19.9124 8.78323 19.9154 8.67596C19.9309 8.13438 19.9411 7.77447 19.5 7.33333L14.3333 2.5C13.832 1.99865 13.6542 1.99902 12.9993 2.00038L12.8885 2.00053H6.81818ZM18.9341 8.24296L13.3333 2.93509V8.24296H18.9341Z" fill="#808080"/>
<path d="M16.5003 15.7503C18.5676 15.7505 20.2503 17.4331 20.2503 19.5003C20.2502 21.5674 18.5675 23.2501 16.5003 23.2503C14.433 23.2503 12.7505 21.5675 12.7503 19.5003C12.7503 17.433 14.4329 15.7503 16.5003 15.7503Z" stroke="#808080" stroke-width="0.833333"/>
<path d="M16.4333 21.6667C16.6727 21.6667 16.8667 21.4727 16.8667 21.2333V19.4C16.8667 19.1607 16.6727 18.9667 16.4333 18.9667C16.194 18.9667 16 19.1607 16 19.4V21.2333C16 21.4727 16.194 21.6667 16.4333 21.6667Z" fill="#808080"/>
<path d="M16 18.1C16 18.3393 16.194 18.5333 16.4333 18.5333C16.6727 18.5333 16.8667 18.3393 16.8667 18.1C16.8667 17.8607 16.6727 17.6667 16.4333 17.6667C16.194 17.6667 16 17.8607 16 18.1Z" fill="#808080"/>
</svg>
