<svg width="24" height="24" viewBox="0 0 24 24" fill="none" xmlns="http://www.w3.org/2000/svg">
<g clip-path="url(#clip0_1_181)">
<path d="M0 11.8414C0.188852 11.5083 0.473705 11.4049 0.850623 11.4183C1.50452 11.442 2.16079 11.4215 2.81548 11.4262C3.26007 11.4294 3.5103 11.6361 3.51738 11.9921C3.52525 12.3662 3.27344 12.5856 2.80525 12.5904C2.13718 12.5967 1.46911 12.5825 0.801049 12.5967C0.438295 12.6046 0.165246 12.4901 0 12.1563V11.8406L0 11.8414Z" fill="#808080"/>
<path d="M24 12.1571C23.8489 12.4807 23.5924 12.603 23.2407 12.5967C22.5608 12.5848 21.8809 12.5967 21.2011 12.5912C20.7391 12.5872 20.4842 12.3646 20.4905 11.9921C20.496 11.6369 20.7462 11.4301 21.1908 11.427C21.8573 11.4223 22.5254 11.442 23.1911 11.4191C23.5578 11.4065 23.8245 11.5193 24.0008 11.8421V12.1579L24 12.1571Z" fill="#808080"/>
<path d="M12.1967 0C12.4839 0.189424 12.5917 0.452249 12.5823 0.798737C12.5642 1.45541 12.5823 2.11365 12.5752 2.77032C12.5705 3.21784 12.358 3.47119 12.0063 3.47277C11.6538 3.47435 11.4374 3.22336 11.4319 2.77427C11.4232 2.11681 11.4397 1.45935 11.424 0.802684C11.4153 0.459353 11.5239 0.194949 11.8041 0H12.1975L12.1967 0Z" fill="#808080"/>
<path d="M12.0858 5.31807C15.7708 5.34175 18.6948 8.31097 18.6626 11.9953C18.6295 15.6661 15.6669 18.5825 12.0055 18.5477C8.3701 18.513 5.45233 15.5359 5.48538 11.895C5.51843 8.23678 8.47082 5.29518 12.0858 5.31807ZM12.048 6.12944V17.7088C13.8264 17.8374 15.9077 16.6511 16.9188 14.8635C18.0818 12.8066 18.0291 10.7245 16.752 8.74349C15.6708 7.06709 14.0703 6.22889 12.048 6.13023V6.12944Z" fill="#808080"/>
<path d="M12.5972 22.2668C12.5972 22.6338 12.6035 23.0008 12.5949 23.367C12.5862 23.723 12.347 23.9842 12.0354 23.9984C11.6978 24.0134 11.4492 23.8011 11.4397 23.4159C11.4201 22.6567 11.4209 21.8958 11.4397 21.1365C11.4492 20.7593 11.7151 20.5162 12.0268 20.5312C12.3439 20.547 12.5902 20.8358 12.5972 21.2052C12.6012 21.3883 12.5972 21.5722 12.5972 21.7553C12.5972 21.9258 12.5972 22.0963 12.5972 22.266V22.2668Z" fill="#808080"/>
<path d="M20.721 3.86188C20.6069 4.0734 20.5566 4.24388 20.4472 4.35754C19.931 4.89661 19.4038 5.4262 18.8695 5.94712C18.5847 6.22494 18.2361 6.22573 17.9984 5.97869C17.7608 5.73244 17.7749 5.40174 18.0606 5.10734C18.5713 4.5809 19.0749 4.04578 19.621 3.55801C19.7744 3.42068 20.0797 3.36148 20.2851 3.40647C20.4496 3.44278 20.5684 3.6914 20.721 3.86109V3.86188Z" fill="#808080"/>
<path d="M3.87305 20.7372C3.72354 20.6101 3.50715 20.5099 3.44105 20.3481C3.37338 20.1823 3.37574 19.8856 3.48197 19.7687C4.04617 19.1492 4.63948 18.5541 5.25089 17.9811C5.49089 17.7561 5.79935 17.8027 6.0244 18.0505C6.23528 18.2833 6.25102 18.577 6.03856 18.8027C5.48144 19.3946 4.90308 19.9653 4.32 20.532C4.22558 20.6235 4.0682 20.6504 3.87305 20.7372Z" fill="#808080"/>
<path d="M3.89351 3.26361C4.1036 3.382 4.2838 3.44199 4.40813 3.56117C4.93613 4.07024 5.45233 4.59195 5.96223 5.11918C6.23449 5.40016 6.23842 5.76164 5.99921 5.99369C5.76787 6.21784 5.42321 6.21942 5.15567 5.95975C4.61036 5.43094 4.06033 4.9045 3.55829 4.33623C3.42688 4.18706 3.39541 3.87214 3.44577 3.66377C3.48354 3.50908 3.72669 3.4041 3.89429 3.26361H3.89351Z" fill="#808080"/>
<path d="M20.7045 20.1492C20.5818 20.3031 20.4873 20.5304 20.3292 20.5904C20.1513 20.6575 19.8437 20.6535 19.7193 20.5406C19.1095 19.9866 18.5272 19.4002 17.9662 18.7956C17.7474 18.5596 17.7749 18.2486 18.0197 18.0174C18.2636 17.7869 18.561 17.7798 18.7987 18.0071C19.3763 18.5588 19.9349 19.1302 20.4889 19.7056C20.581 19.8011 20.6125 19.955 20.7045 20.1492Z" fill="#808080"/>
</g>
<defs>
<clipPath id="clip0_1_181">
<rect width="24" height="24" fill="white"/>
</clipPath>
</defs>
</svg>
