<svg width="24" height="24" viewBox="0 0 24 24" fill="none" xmlns="http://www.w3.org/2000/svg">
<g clip-path="url(#clip0_1_199)">
<path d="M11.5935 23.1248H5.33374C3.63255 23.1248 2.25224 21.7394 2.25224 20.0433V4.95671C2.25224 3.25552 3.63764 1.87521 5.33374 1.87521H11.6954C12.0774 1.87521 12.383 1.56961 12.383 1.18761C12.383 0.805603 12.0774 0.5 11.6954 0.5H5.33374C2.87363 0.5 0.877029 2.5017 0.877029 4.95671V20.0433C0.877029 22.5034 2.87873 24.5 5.33374 24.5H11.5935C11.9755 24.5 12.2811 24.1944 12.2811 23.8124C12.2811 23.4304 11.9704 23.1248 11.5935 23.1248Z" fill="#808080"/>
<path d="M22.9212 12.0161L18.5511 7.64601C18.2811 7.37606 17.8482 7.37606 17.5782 7.64601C17.3083 7.91596 17.3083 8.3489 17.5782 8.61884L20.7769 11.8175H6.82609C6.44409 11.8175 6.13849 12.1231 6.13849 12.5051C6.13849 12.8871 6.44409 13.1927 6.82609 13.1927H20.7769L17.5782 16.3913C17.3083 16.6613 17.3083 17.0942 17.5782 17.3642C17.7106 17.4966 17.8889 17.5679 18.0621 17.5679C18.2353 17.5679 18.4135 17.5017 18.546 17.3642L22.9161 12.9941C23.1911 12.719 23.1911 12.281 22.9212 12.0161Z" fill="#808080"/>
</g>
<defs>
<clipPath id="clip0_1_199">
<rect width="24" height="24" fill="white"/>
</clipPath>
</defs>
</svg>
