<svg width="24" height="24" viewBox="0 0 24 24" fill="none" xmlns="http://www.w3.org/2000/svg">
<path d="M20.6364 4.33333H3.36364C3.00227 4.3343 2.65598 4.47948 2.40046 4.73713C2.14494 4.99478 2.00096 5.34396 2 5.70833V17.625C2 17.9897 2.14367 18.3394 2.3994 18.5973C2.65513 18.8551 3.00198 19 3.36364 19H20.6364C20.998 19 21.3449 18.8551 21.6006 18.5973C21.8563 18.3394 22 17.9897 22 17.625V5.70833C21.999 5.34396 21.8551 4.99478 21.5995 4.73713C21.344 4.47948 20.9977 4.3343 20.6364 4.33333ZM12 11.7308L3.65455 5.25H20.3455L12 11.7308ZM9.41273 10.8783L2.90909 17.4343V5.82842L9.41273 10.8783ZM10.1382 11.4421L12 12.8858L13.8618 11.4412L20.4482 18.0833H3.55182L10.1382 11.4421ZM14.5873 10.8774L21.0909 5.82842V17.4353L14.5873 10.8774Z" fill="#808080"/>
</svg>
