<svg width="24" height="24" viewBox="0 0 24 24" fill="none" xmlns="http://www.w3.org/2000/svg">
<path d="M12.02 19.8633C9.69001 19.8633 7.36001 19.4933 5.15001 18.7533C4.31001 18.4633 3.67001 17.8733 3.39001 17.1033C3.10001 16.3333 3.20001 15.4833 3.66001 14.7233L4.81001 12.8133C5.05001 12.4133 5.27001 11.6133 5.27001 11.1433V8.25333C5.27001 4.53333 8.30001 1.50333 12.02 1.50333C15.74 1.50333 18.77 4.53333 18.77 8.25333V11.1433C18.77 11.6033 18.99 12.4133 19.23 12.8233L20.37 14.7233C20.8 15.4433 20.88 16.3133 20.59 17.1033C20.3 17.8933 19.67 18.4933 18.88 18.7533C16.68 19.4933 14.35 19.8633 12.02 19.8633ZM12.02 3.00333C9.13001 3.00333 6.77001 5.35333 6.77001 8.25333V11.1433C6.77001 11.8733 6.47001 12.9533 6.10001 13.5833L4.95001 15.4933C4.73001 15.8633 4.67001 16.2533 4.80001 16.5833C4.92001 16.9233 5.22001 17.1833 5.63001 17.3233C9.81001 18.7233 14.24 18.7233 18.42 17.3233C18.78 17.2033 19.06 16.9333 19.19 16.5733C19.32 16.2133 19.29 15.8233 19.09 15.4933L17.94 13.5833C17.56 12.9333 17.27 11.8633 17.27 11.1333V8.25333C17.27 5.35333 14.92 3.00333 12.02 3.00333Z" fill="#808080"/>
<path d="M12.02 22.1433C11.03 22.1433 10.07 21.7433 9.37 21.0433C8.67 20.3433 8.27 19.3833 8.27 18.3933H9.77C9.77 18.9833 10.01 19.5633 10.43 19.9833C10.85 20.4033 11.43 20.6433 12.02 20.6433C13.26 20.6433 14.27 19.6333 14.27 18.3933H15.77C15.77 20.4633 14.09 22.1433 12.02 22.1433Z" fill="#808080"/>
</svg>
