<svg width="24" height="24" viewBox="0 0 24 24" fill="none" xmlns="http://www.w3.org/2000/svg">
<path d="M7.00001 11V9.16667C7.00001 6.1291 9.23858 3.66667 12 3.66667C14.7614 3.66667 17 6.1291 17 9.16667V11M3.66667 16.3333C3.66667 13.9763 3.66667 12.7978 4.39891 12.0656C5.13114 11.3333 6.30965 11.3333 8.66667 11.3333H15.3333C17.6903 11.3333 18.8688 11.3333 19.6011 12.0656C20.3333 12.7978 20.3333 13.9763 20.3333 16.3333C20.3333 18.6903 20.3333 19.8688 19.6011 20.6011C18.8688 21.3333 17.6903 21.3333 15.3333 21.3333H8.66667C6.30965 21.3333 5.13114 21.3333 4.39891 20.6011C3.66667 19.8688 3.66667 18.6903 3.66667 16.3333Z" stroke="#808080" stroke-width="0.833333" stroke-linecap="round"/>
</svg>
