<svg width="24" height="24" viewBox="0 0 24 24" fill="none" xmlns="http://www.w3.org/2000/svg">
<path d="M15.9167 5.54167L7.52083 10.7083M7.52083 13.9375L15.9167 18.4583M15.9167 5.54167L7.52083 10.7083M7.52083 13.9375L15.9167 18.4583M8.16667 12C8.16667 13.4267 7.01007 14.5833 5.58333 14.5833C4.1566 14.5833 3 13.4267 3 12C3 10.5733 4.1566 9.41667 5.58333 9.41667C7.01007 9.41667 8.16667 10.5733 8.16667 12ZM21.0833 4.25C21.0833 5.67674 19.9267 6.83333 18.5 6.83333C17.0733 6.83333 15.9167 5.67674 15.9167 4.25C15.9167 2.82327 17.0733 1.66667 18.5 1.66667C19.9267 1.66667 21.0833 2.82327 21.0833 4.25ZM21.0833 19.75C21.0833 21.1767 19.9267 22.3333 18.5 22.3333C17.0733 22.3333 15.9167 21.1767 15.9167 19.75C15.9167 18.3233 17.0733 17.1667 18.5 17.1667C19.9267 17.1667 21.0833 18.3233 21.0833 19.75ZM8.16667 12C8.16667 13.4267 7.01007 14.5833 5.58333 14.5833C4.1566 14.5833 3 13.4267 3 12C3 10.5733 4.1566 9.41667 5.58333 9.41667C7.01007 9.41667 8.16667 10.5733 8.16667 12Z" stroke="#808080" stroke-width="0.833333" stroke-linejoin="round"/>
</svg>
