<svg width="24" height="24" viewBox="0 0 24 24" fill="none" xmlns="http://www.w3.org/2000/svg">
<path d="M11.5516 2.90835C11.735 2.53677 12.2649 2.53677 12.4483 2.90835L14.9738 8.02458C15.0465 8.172 15.1871 8.27423 15.3498 8.29801L20.9981 9.12359C21.4081 9.18351 21.5714 9.68743 21.2746 9.97651L17.1884 13.9565C17.0704 14.0714 17.0166 14.237 17.0444 14.3992L18.0087 20.0213C18.0788 20.4298 17.65 20.7413 17.2832 20.5484L12.2327 17.8924C12.087 17.8158 11.9129 17.8158 11.7673 17.8924L6.7168 20.5484C6.34999 20.7413 5.92121 20.4298 5.99127 20.0213L6.95553 14.3992C6.98336 14.237 6.92953 14.0714 6.81159 13.9565L2.72532 9.97651C2.42853 9.68743 2.59192 9.18351 3.00187 9.12359L8.65017 8.29801C8.81284 8.27423 8.95344 8.172 9.02621 8.02458L11.5516 2.90835Z" stroke="#808080" stroke-linecap="round" stroke-linejoin="round"/>
</svg>
