<svg width="24" height="24" viewBox="0 0 24 24" fill="none" xmlns="http://www.w3.org/2000/svg">
<path fill-rule="evenodd" clip-rule="evenodd" d="M6.81818 2.00053C5.26174 2.00053 4.33333 2.92895 4.33333 4.48538V19.5157C4.33333 21.0722 5.26174 22.0005 6.81818 22.0005H17.4242C18.9807 22.0005 19.9091 21.0722 19.9091 19.5157V9.02118C19.9091 8.27375 20.0285 7.86184 19.5 7.33333L14.3333 2.5C13.8048 1.97149 13.6358 2.00053 12.8885 2.00053H6.81818ZM5.25252 4.48538C5.25252 3.50053 6.33977 2.87932 6.85858 2.87932H12.4141V8.24296C12.4141 9.28058 12.629 9.16215 13.6667 9.16215H18.9899V19.5157C18.9341 20.5005 17.9027 21.1217 17.3838 21.1217H6.85858C6.33977 21.1217 5.16666 20.5005 5.25252 19.5157V4.48538ZM18.9341 8.24296L13.3333 2.93509V8.24296H18.9341Z" fill="#808080"/>
</svg>
